
<global>
amp_veltrack=0
ampeg_release=0.35
</global>

<group>
group_label=Group_0-45
lpc_hicc1=42
lpc_locc1=0

<region>
hikey=a#4
hivel=127
lokey=a4
loop_end=259277
loop_mode=loop_continuous
loop_start=57536
loop_xfade=24445
lovel=1
lpc=4w7dQWK4lMJex5NCf2G0wVEQhsFGt6dBhgevwHnjF8HmeYhBSkdtwYlVWD+YMYFBV0yWwUBX3kCfUMdAALoGwQO+i79cfz5BORtawRhKt0B65WxAwUqbwMYM3z8o462+
lpc_rms=-28.24
pitch_keycenter=a#4
sample=Oboe_trill_semitone_PP_A#4.opus
</region>

<region>
hikey=a#5
hivel=127
lokey=a5
loop_end=252559
loop_mode=loop_continuous
loop_start=56045
loop_xfade=23812
lovel=1
lpc=8DcbQjOfocJU8YFCblMGweKcrMFXD41BVNZTQLbPNsG3jRRBJugYwBbcLT8OdVe+aGgLQZRpCsFkQyRAzjWnPx2hHz9/nJ9A+SywwE/mi0DQcZnA7puBQUklpMFaRwtB
lpc_rms=-28.44
pitch_keycenter=a#5
sample=Oboe_trill_semitone_PP_A#5.opus
</region>

<region>
hivel=127
key=c4
loop_end=244016
loop_mode=loop_continuous
loop_start=54149
loop_xfade=23006
lovel=1
lpc=jRHjQYxWo8KivbBCylQOwiCyE8FkdphBhb5DwdKCnEC/4zNArvcJwT+XxkAf5JTAR430QOHOksB3OYW/8FMeQK+0pb8Ele4/0EcAwDlOwL/pe+w/4flQQN74ksCrieE/
lpc_rms=-27.67
sample=Oboe_trill_semitone_PP_C4.opus
</region>

<region>
hikey=c5
hivel=127
lokey=b4
loop_end=257318
loop_mode=loop_continuous
loop_start=57101
loop_xfade=24260
lovel=1
lpc=TxS6QYoWZcLGEzhCjC6xwHGGh8B6Nq3AB56KQH6gmkDvs5jAwq5XwPTBxT/PyllAngOJQOHHGcHWieFAnTS5wDrRgUCqDu8+ENIhwB406L6dXz5Ak1GBvz34db6qF5q+
lpc_rms=-28.62
pitch_keycenter=c5
sample=Oboe_trill_semitone_PP_C5.opus
</region>

<region>
hikey=c6
hivel=127
lokey=b5
loop_end=259025
loop_mode=loop_continuous
loop_start=57480
loop_xfade=24421
lovel=1
lpc=XCPTQf4FYcI6+VBCj+OUwcDVIT507hxA31Svvg+r7EBi4KbAT82SPjoMnkBE0hjAZ6aaQDVIcMDfCptAoOaev+cCvD7gf69AJSXJwHUP00CkDMO+3TngwHB94UB0IiS/
lpc_rms=-26.80
pitch_keycenter=c6
sample=Oboe_trill_semitone_PP_C6.opus
</region>

<region>
hikey=d4
hivel=127
lokey=c#4
loop_end=263028
loop_mode=loop_continuous
loop_start=58368
loop_xfade=24799
lovel=1
lpc=gg0DQmViv8K7XdRCZcYywuSTRsGYzM9BPMMYwRBMDcHBMVFB3vUawQJ630DidtLAMN8LQatd2MBgCJg/mrx2QMgf48D0SQRB/8EGwRWunUBCk4q/SY2GQPnzuMB0pv8/
lpc_rms=-28.06
pitch_keycenter=d4
sample=Oboe_trill_semitone_PP_D4.opus
</region>

<region>
hikey=d5
hivel=127
lokey=c#5
loop_end=258092
loop_mode=loop_continuous
loop_start=57273
loop_xfade=24333
lovel=1
lpc=baEqQqxv48L2Y+VC2WkhwrdSl8Fddu1B6OJIwSHde8CUwAZBxVK0wKqm4UB7vknBIZQ3QduVi7+F28C+w4KPwMmUnb/PL1hBUmhywU+9EUFX5ALB6/hwQRyYhMEJ6/9A
lpc_rms=-26.86
pitch_keycenter=d5
sample=Oboe_trill_semitone_PP_D5.opus
</region>

<region>
hikey=d6
hivel=127
lokey=c#6
loop_end=264052
loop_mode=loop_continuous
loop_start=58596
loop_xfade=24895
lovel=1
lpc=7JH4QcYKdcJ9k05CFoAHwS8sesFvjJNBW4W1wJdWlkCNkFW9yeYRwG/hM0GUXcTACWVaQKJt1kC0x4zALfI9QDGXpECOPw7AWf4/QHhC3sClPIVAY5tfQbqEjcHSIxNB
lpc_rms=-27.11
pitch_keycenter=d6
sample=Oboe_trill_semitone_PP_D6.opus
</region>

<region>
hikey=e4
hivel=127
lokey=d#4
loop_end=263485
loop_mode=loop_continuous
loop_start=58470
loop_xfade=24842
lovel=1
lpc=n+YuQjF7/sKgJwZD+PBDwkLyisFT3gVCf+HXwZQeYEHYeC/AR6sQwLXfdUDAWEPBGzNuQT5Nk7xqPRrBh598QK5W1T8cqpxAiRwgwX7q8D/KDNxA0wUawXd7AEHu8y3A
lpc_rms=-26.01
pitch_keycenter=e4
sample=Oboe_trill_semitone_PP_E4.opus
</region>

<region>
hikey=e5
hivel=127
lokey=d#5
loop_end=262357
loop_mode=loop_continuous
loop_start=58220
loop_xfade=24735
lovel=1
lpc=OK6aQjWQRMPdUTFDg/3jwebNiMLZ5YBCkKHOwRH0DEHJnKlAK7K7wZuq+EE6dQPC7M2wQRkeAkELm4HB2cVdQMgUisDZM3dBNnAOwX8tusAeflhBWvRUwE3FFMFlIwhB
lpc_rms=-24.56
pitch_keycenter=e5
sample=Oboe_trill_semitone_PP_E5.opus
</region>

<region>
hikey=G#6
hivel=127
lokey=d#6
loop_end=267075
loop_mode=loop_continuous
loop_start=59266
loop_xfade=25180
lovel=1
lpc=I1IoQglimcJGtI5CXsPpwTxM80C/ZIFAfLcGQPHXB0HMNxzBA6SfQSXCdsB0pZBA1c77P/+v/kDc8rdAeHPrwG24j0GjDw3BWtAMwfL0mUH3M2FAkMEfwVbVnkDewYVA
lpc_rms=-28.84
pitch_keycenter=E6
sample=Oboe_trill_semitone_PP_E6.opus
</region>

<region>
hikey=f#4
hivel=127
lokey=f4
loop_end=254721
loop_mode=loop_continuous
loop_start=56525
loop_xfade=24015
lovel=1
lpc=Rt31Qc0ascL0n7VCs3CwwR8xBMIowBtC2D2lwbbSL0DdnLBArwHSwMVblkDaTZfA3RPQQDuIjL56cJ/AsZxvv+lexT82oblAwl5BwDEzbcCIGU9Ax5fPv/qemj+lEnW+
lpc_rms=-28.18
pitch_keycenter=f#4
sample=Oboe_trill_semitone_PP_F#4.opus
</region>

<region>
hikey=f#5
hivel=127
lokey=f5
loop_end=260311
loop_mode=loop_continuous
loop_start=57765
loop_xfade=24543
lovel=1
lpc=CFEWQh4rwsKsOMlC+t77wcLP38EFVw1CiOKEwW0VFUHrkYHA1d/2wJhEiUFsfTnBNYGsP0OB00Bkd6jArYz9P5ddQz9D3BFAmL16wC+gRj8QscJAC5WPwKQDED8Z1wZA
lpc_rms=-26.96
pitch_keycenter=f#5
sample=Oboe_trill_semitone_PP_F#5.opus
</region>

<region>
hikey=g#4
hivel=127
lokey=g4
loop_end=266982
loop_mode=loop_continuous
loop_start=59246
loop_xfade=25171
lovel=1
lpc=/B2aQcweQsLnYxpC1zfKPn8oXsFd5pdAtou3P8ONhMCu27xANV50wIgKAcCs5MBA+gmIwBrlnT/Czte9lwdOwNB0+UCu2NDA9h4cQF8QGcCGLCJAcn0HQCdOpMCx7CpA
lpc_rms=-30.03
pitch_keycenter=g#4
sample=Oboe_trill_semitone_PP_G#4.opus
</region>

<region>
hikey=g#5
hivel=127
lokey=g5
loop_end=253997
loop_mode=loop_continuous
loop_start=56364
loop_xfade=23947
lovel=1
lpc=EzG5QcnjNMJo4gNCF+GMwLThesAS8klAm6BxPwQUEcBcGOVAvGHtwJOQNUDH8W5AwpwBwNiK8D+G6n+/mdoDuwPEl0BlGqTAs0LjQIY2tsC21HNALko0QIXms8BzDXVA
lpc_rms=-28.95
pitch_keycenter=g#5
sample=Oboe_trill_semitone_PP_G#5.opus
</region>
</group>

<group>
group_label=Group_46-90
lpc_hicc1=84
lpc_locc1=43

<region>
hikey=a#4
hivel=127
lokey=a4
loop_end=263401
loop_mode=loop_continuous
loop_start=58451
loop_xfade=24834
lovel=1
lpc=OfTjQfr6ncJ+zq1CffcVwqugFcGSh5tBB2ACwRTCkMCOqIpBinGcwXYh3z8h3ppBPoOxwexII0HXjB1A86D+wPQWFkAM8DVBG/OFwTybnkAJZCdBcEsrwfixzT+8zuw/
lpc_rms=-24.40
pitch_keycenter=a#4
sample=Oboe_trill_semitone_MF_A#4.opus
</region>

<region>
hikey=a#5
hivel=127
lokey=a5
loop_end=269870
loop_mode=loop_continuous
loop_start=59887
loop_xfade=25444
lovel=1
lpc=c+XaQZAcccL5B3lCSpXXwQ5ou8AGHYBBoOB8wDOY1MCbVUlBi4QowefArECI4/k/esgIwLUvBUBIC50/w3Sav4H3vb4zN9JAnEXewCSlzECQ7KjAUpMaQU6o+cCutt4/
lpc_rms=-24.73
pitch_keycenter=a#5
sample=Oboe_trill_semitone_MF_A#5.opus
</region>

<region>
hivel=127
key=c4
loop_end=267417
loop_mode=loop_continuous
loop_start=59342
loop_xfade=25213
lovel=1
lpc=h6/AQdscjsIyP65CLnRXwpvnaUE7byBAQnRcwPT1IEB1jF6/aGyPP3It3MDPrOlAVNmvP8T2nMBeIuE/AoRGPwllF7+Cs5g/w14/wG7sAEBgWI++HFcdQLvie8AQGgBA
lpc_rms=-24.19
sample=Oboe_trill_semitone_MF_C4.opus
</region>

<region>
hikey=c5
hivel=127
lokey=b4
loop_end=260789
loop_mode=loop_continuous
loop_start=57872
loop_xfade=24588
lovel=1
lpc=YLyMQbWVM8KsKSpCGEFtwbWMsL8NRcVAvQoBwQGiikB4ICRAcEXlv/p7lsAu2G9AiO5XQFClvsDD4xVBBE87wSMYikDrt8lAus/TwBZMDcB+pZ1AGlu8P7vpe8CFMps/
lpc_rms=-29.32
pitch_keycenter=c5
sample=Oboe_trill_semitone_MF_C5.opus
</region>

<region>
hikey=c6
hivel=127
lokey=b5
loop_end=264464
loop_mode=loop_continuous
loop_start=58687
loop_xfade=24934
lovel=1
lpc=wfK5QVlzRsLg/U5CpgG3wXQfnT/aeP9A0JVIwO0Su0CpUxXAcMK0vwnODEGmP7fAUwT1QOqFlMCupblAfrr9vvuAdr/xBwhBgRcQwQgRFUE2T9Q7oEEDwXbeB0EV1Y2/
lpc_rms=-24.41
pitch_keycenter=c6
sample=Oboe_trill_semitone_MF_C6.opus
</region>

<region>
hikey=d4
hivel=127
lokey=c#4
loop_end=267708
loop_mode=loop_continuous
loop_start=59407
loop_xfade=25240
lovel=1
lpc=88LpQcJrpMKtdrZCg0A7wt6zvkCm5SVBZ3vlwHeQ2sCtQIpBGjpcwTBRrECR+7G/oGSfv4I2vEBVUgTBiI0BQXCAqsDchUBABzN6wCvpnUA3oCfADk6kPwmL1b98TJA/
lpc_rms=-24.09
pitch_keycenter=d4
sample=Oboe_trill_semitone_MF_D4.opus
</region>

<region>
hikey=d5
hivel=127
lokey=c#5
loop_end=269197
loop_mode=loop_continuous
loop_start=59737
loop_xfade=25380
lovel=1
lpc=7jEMQsOoysIbcvBCsHCJwik0EEG+gKRBHfCYwcsGtrzwhoJB3FpQwfBklT+OVKS/Wg8SQXCgeMBU3RXBT8yCQVh/dMGYSCxBtyz3wF7CNEG1/YnBYK+ZQV9FZsH3QbdA
lpc_rms=-23.74
pitch_keycenter=d5
sample=Oboe_trill_semitone_MF_D5.opus
</region>

<region>
hikey=d6
hivel=127
lokey=c#6
loop_end=269352
loop_mode=loop_continuous
loop_start=59772
loop_xfade=25395
lovel=1
lpc=FBIQQoZ8hcJt7YBCTlIQwk0mF0GBpndBsSCKwRQUekHQNwO+HktawPCOFEEraPC/IAFWQFIE2T/vPclAvzahwAJVtkCQB+9AsG8VwQO5/EDKH4DBHqbHQW+wOsGjnJZA
lpc_rms=-19.48
pitch_keycenter=d6
sample=Oboe_trill_semitone_MF_D6.opus
</region>

<region>
hikey=e4
hivel=127
lokey=d#4
loop_end=268403
loop_mode=loop_continuous
loop_start=59561
loop_xfade=25306
lovel=1
lpc=7couQrQD+cKFhwhDO0Z8wmEM1b9QnqdBfqxywdShCkGAkI3AOZYWP/t6IkAw3yDBC4tXQXQfIsBBMMjAFDpZQIgGrEBrKhvBGfLmQDsEBMEVGClBKw6mwBSvxj5dN0s9
lpc_rms=-24.60
pitch_keycenter=e4
sample=Oboe_trill_semitone_MF_E4.opus
</region>

<region>
hikey=e5
hivel=127
lokey=d#5
loop_end=267295
loop_mode=loop_continuous
loop_start=59315
loop_xfade=25201
lovel=1
lpc=sUBvQndkKsOiDE5DiOP7wsQS3kFz3ZBB0+mdwVOlwEGokpnBexzIwNrsg0EcOarA+xC2PtKv1UAaDhjBhH0JwMOYl0G2ScTBc+K3QbJbnMF4NQ5B3l+BQTm138FxfmVB
lpc_rms=-19.45
pitch_keycenter=e5
sample=Oboe_trill_semitone_MF_E5.opus
</region>

<region>
hikey=G#6
hivel=127
lokey=d#6
loop_end=268191
loop_mode=loop_continuous
loop_start=59514
loop_xfade=25286
lovel=1
lpc=zwMqQh4Dm8Lo7I5CmHvhwarIuUCJOZdApX0XQO7zAkErvRnBtUGXQa5CG8COQklAD1YtQBEN1UBpb+1Ar04LwTtni0Gdob7AnF0nwSAKakF7hTRBe9hywVvv10DmkXZA
lpc_rms=-25.88
pitch_keycenter=E6
sample=Oboe_trill_semitone_MF_E6.opus
</region>

<region>
hikey=f#4
hivel=127
lokey=f4
loop_end=266094
loop_mode=loop_continuous
loop_start=59049
loop_xfade=25088
lovel=1
lpc=xoXgQYT4p8J9F8FCsUYqwsPuS8GoSOpBo8mcwbs6GUFjKYvAix6owEjMQUEuXx3BR9XWQMg7bcAk3ag/FKdcPq8QbcDa/eFAwA3zwI0xHUAaif5AF4dDwRLI1ED2v5W/
lpc_rms=-24.76
pitch_keycenter=f#4
sample=Oboe_trill_semitone_MF_F#4.opus
</region>

<region>
hikey=f#5
hivel=127
lokey=f5
loop_end=263395
loop_mode=loop_continuous
loop_start=58450
loop_xfade=24833
lovel=1
lpc=rHjmQYnmmcKzDLtCRXhbwjoViEAEjKRBpLmWwWXhdkGT5fnAAvLUwOwBlUHaTWjBMRFpQGM9rkAc5MHApUbOQGPYjcDLtoE+azrQQJG8B8FlNpxA2e+gQKedA8F1J6lA
lpc_rms=-23.46
pitch_keycenter=f#5
sample=Oboe_trill_semitone_MF_F#5.opus
</region>

<region>
hikey=g#4
hivel=127
lokey=g4
loop_end=258011
loop_mode=loop_continuous
loop_start=57255
loop_xfade=24326
lovel=1
lpc=oauxQWWyd8L11H9CfIKpwVkPM8HPvV1BQ3W4wEMd9z1gl8pAorpIwXpz5UBhyDVAf7t9wJBGPUB34D7A+nv4v9d7EkGODD/B294UQczuvcASVvs/sCGwQMVrB8HXs21A
lpc_rms=-22.76
pitch_keycenter=g#4
sample=Oboe_trill_semitone_MF_G#4.opus
</region>

<region>
hikey=g#5
hivel=127
lokey=g5
loop_end=267175
loop_mode=loop_continuous
loop_start=59289
loop_xfade=25190
lovel=1
lpc=5Sa7QRhdQ8Jj2yFC32wfwTtZdcDWUvxAMswQwQpJ60Azx49AJioPwVveJkBIHc1AxpD3wCzkDUFpb7LA8/2DvmJiJUGBEEfBFP8yQfGy3cBAdU0+wuQPQYRa7sBnRixA
lpc_rms=-24.27
pitch_keycenter=g#5
sample=Oboe_trill_semitone_MF_G#5.opus
</region>
</group>

<group>
group_label=Group_91-127
lpc_hicc1=127
lpc_locc1=85

<region>
hikey=a#4
hivel=127
lokey=a4
loop_end=274488
loop_mode=loop_continuous
loop_start=60912
loop_xfade=25879
lovel=1
lpc=ZH/lQfY6qMJDWt5C+1KlwvzK2UG4lUtB72F3wUCrAkCiVJpAe4HzwJqLX0ELnobBxtZuQVc8DME8sWc/7hmrQKG7LcE6fz1BQXRlwNYFEsGoQZRBa9CQwRuYNUGmDmvA
lpc_rms=-21.09
pitch_keycenter=a#4
sample=Oboe_trill_semitone_FF_A#4.opus
</region>

<region>
hikey=a#5
hivel=127
lokey=a5
loop_end=267078
loop_mode=loop_continuous
loop_start=59267
loop_xfade=25181
lovel=1
lpc=qbTCQWr1XcKdCHtCClsRwvky2rqWV81B/264wYnyiEDhvIhB05q5wSjebkEMv0tAxgpbwSrLgUG0ESTBs4OKQCtTZUBif9rANq8mQUAR58CY4Ne/J8F5QTcbk8HBwfFA
lpc_rms=-20.67
pitch_keycenter=a#5
sample=Oboe_trill_semitone_FF_A#5.opus
</region>

<region>
hivel=127
key=c4
loop_end=265155
loop_mode=loop_continuous
loop_start=58840
loop_xfade=24999
lovel=1
lpc=pe5+QfsIOcKgKmJCp5sIwu1U4UC4yZ9AUGP/wE85O0FISDTBQhPAQBnRD8CGvYI+6FkOQHOKTcC/lX5AuzjdwJ4KGEGZF7HACqybv57ybEByiEHAtmkbQOzn1r/Bqyw/
lpc_rms=-23.57
sample=Oboe_trill_semitone_FF_C4.opus
</region>

<region>
hikey=c5
hivel=127
lokey=b4
loop_end=271250
loop_mode=loop_continuous
loop_start=60193
loop_xfade=25574
lovel=1
lpc=R1ewQbJdesIQm5FC5oAbwlTODT+XNn9BUtRowRatS0FDQzTBdWFbQNd9RUB0DFg+rX92wAiDVL+GmgBBPj4PwZtfrkDCkK++R7xdwBBzsj9rTTBAcb5OwPwuFkCrfaK/
lpc_rms=-26.99
pitch_keycenter=c5
sample=Oboe_trill_semitone_FF_C5.opus
</region>

<region>
hikey=c6
hivel=127
lokey=b5
loop_end=263227
loop_mode=loop_continuous
loop_start=58412
loop_xfade=24818
lovel=1
lpc=Rg2YQQtUM8JtAWxCCHwywrvjkkF+BQxBl+2Dwd+8hEEiPO7AxO/9P+j0jUCcdUPAnKFlQFOZ0j+AxRjAN1+NQLWpSj9pRdm+6kU6v4JPAUGKAwrBa/RWQI8n8j8v3r6+
lpc_rms=-21.41
pitch_keycenter=c6
sample=Oboe_trill_semitone_FF_C6.opus
</region>

<region>
hikey=d4
hivel=127
lokey=c#4
loop_end=272822
loop_mode=loop_continuous
loop_start=60542
loop_xfade=25722
lovel=1
lpc=uQDPQQySmsLDtrlCse5awq4oZUHKXy5AaF3ZwL8KfEBCjYZAx2z7wOPojUBLvFk/BPCQwERVV0At6oi/ZTdKQNemAcGIuENBw/s5wY6grEDyPR0/PoiZvu1gDcAZdqs/
lpc_rms=-22.01
pitch_keycenter=d4
sample=Oboe_trill_semitone_FF_D4.opus
</region>

<region>
hikey=d5
hivel=127
lokey=c#5
loop_end=272560
loop_mode=loop_continuous
loop_start=60484
loop_xfade=25697
lovel=1
lpc=jf/cQXleocKdws9CD/eTwsfLzUFygfxAXlh3wb0ZokDgQgRBmu9awRwackGjPILBqTpYQWbm6r+AAB7BkBxEQdYsncBK5oHAVZsTQZj/C8F5p4g/XQAgQWXwR8FQS7dA
lpc_rms=-18.30
pitch_keycenter=d5
sample=Oboe_trill_semitone_FF_D5.opus
</region>

<region>
hikey=d6
hivel=127
lokey=c#6
loop_end=271246
loop_mode=loop_continuous
loop_start=60192
loop_xfade=25574
lovel=1
lpc=M1gyQr8GuMI7TctCUHiAwrv27UFk9M1AApZ6wTuSqEENBPHAbrOfQN3NAUF0/9/Adx6AQTKvH8EZO4FBC6f+wAomLUEMpcrANr0QQQHRI8HHvhdAN7nQQfVs+sE+2mxB
lpc_rms=-16.74
pitch_keycenter=d6
sample=Oboe_trill_semitone_FF_D6.opus
</region>

<region>
hikey=e4
hivel=127
lokey=d#4
loop_end=267955
loop_mode=loop_continuous
loop_start=59462
loop_xfade=25263
lovel=1
lpc=QTdAQu/UC8P3Ti1DqQTwwuDOU0JoH0HBr/C5wHMlakEt+HfB2S+GQeNqksHi5L9AoT8uQVX3QcFR+dI/WhGTQHr9gMCaWCRBetV7wX3hmEC8mBlBVA8xwXjBpUAv8zq/
lpc_rms=-18.27
pitch_keycenter=e4
sample=Oboe_trill_semitone_FF_E4.opus
</region>

<region>
hikey=e5
hivel=127
lokey=d#5
loop_end=273092
loop_mode=loop_continuous
loop_start=60602
loop_xfade=25748
lovel=1
lpc=dN17QqQ9MsOIKF9DCZwcw3/LUEK0br9BJPcpwstXPEKSE0HC7re7QXIrL0Gl9uDB5P7kQYq9UMFDvnlAMFSTPopQ9sCTFh5BP/keQPdXh8GEAZ9B0/mnwGY448DSm8RA
lpc_rms=-15.31
pitch_keycenter=e5
sample=Oboe_trill_semitone_FF_E5.opus
</region>

<region>
hikey=G#6
hivel=127
lokey=d#6
loop_end=270221
loop_mode=loop_continuous
loop_start=59965
loop_xfade=25477
lovel=1
lpc=a1MlQnW5mcI3pJFCAVP/wTgMOUE5+G5Af45KPiWtBkHAAQ7Bzd+mQQ3ovMDhwdZAoF8ePzRlMEFvX0A/i+PHv6DJc0EAQk/Bd9FMwO8Y20HAWXjBNU7fQCI5scAbugJB
lpc_rms=-19.13
pitch_keycenter=E6
sample=Oboe_trill_semitone_FF_E6.opus
</region>

<region>
hikey=f#4
hivel=127
lokey=f4
loop_end=268744
loop_mode=loop_continuous
loop_start=59637
loop_xfade=25338
lovel=1
lpc=7YVZQRqUKMKFlm9CQARDwvDBnUF4F6NAr3FUwaHiQ0G0FC7BvAwNQU4GbcCOA3zANMkWQR7XD8F8fLxAlARxwK9RY0DpvzjA6leovzuMs0CrRqfA4lMEQM+SkLwQQTa+
lpc_rms=-24.42
pitch_keycenter=f#4
sample=Oboe_trill_semitone_FF_F#4.opus
</region>

<region>
hikey=f#5
hivel=127
lokey=f5
loop_end=274300
loop_mode=loop_continuous
loop_start=60870
loop_xfade=25861
lovel=1
lpc=QyShQbC0TsLCsINCbek5wmLGdEGYTohAaUJvwEX6z73w+VpAA86owCMm90B4RNvA7G67QJ6IAcBNfq4+3deoPxmPwb+UHJVAHq/NwCSl90CxbvvA9PAYQYOw48BSeoRA
lpc_rms=-21.57
pitch_keycenter=f#5
sample=Oboe_trill_semitone_FF_F#5.opus
</region>

<region>
hikey=g#4
hivel=127
lokey=g4
loop_end=274094
loop_mode=loop_continuous
loop_start=60824
loop_xfade=25842
lovel=1
lpc=3uCRQR7JRcIYJExCMDCjwTSgWcBJW9NAujl4PjnEgMDo6KVAOSncwGptQj+Mpe1AqTbKwPp7OUDWmEXA9DUfQFAUcEDHJjrBv8JFQaWc8cDKKypA1GsUQA4yhsCgVQFA
lpc_rms=-25.35
pitch_keycenter=g#4
sample=Oboe_trill_semitone_FF_G#4.opus
</region>

<region>
hikey=g#5
hivel=127
lokey=g5
loop_end=271829
loop_mode=loop_continuous
loop_start=60321
loop_xfade=25629
lovel=1
lpc=RfebQbqDJcKdYhxCdDVcwVKg1MALvVhBjRuZwPbIO8ALY6VAeyXoP5yCC8Ft+DtBcknNwF1CZEBOPB/A2ZKFPEeiBUE+TPXAl+jYP9BFokAzb4vA4kKZP1GoDEAA5j+/
lpc_rms=-22.46
pitch_keycenter=g#5
sample=Oboe_trill_semitone_FF_G#5.opus
</region>
</group>